<?xml version="1.0" encoding="UTF-8"?>
<svg id="Layer_1" data-name="Layer 1" xmlns="http://www.w3.org/2000/svg" xmlns:xlink="http://www.w3.org/1999/xlink" viewBox="0 0 121.21 109.02">
  <defs>
    <style>
      .cls-1 {
        fill: url(#New_Gradient_Swatch_1-4);
      }

      .cls-2 {
        fill: url(#New_Gradient_Swatch_1-3);
      }

      .cls-3 {
        fill: url(#New_Gradient_Swatch_1-8);
      }

      .cls-4 {
        fill: url(#New_Gradient_Swatch_1-13);
      }

      .cls-5 {
        fill: url(#New_Gradient_Swatch_1-10);
      }

      .cls-6 {
        fill: url(#New_Gradient_Swatch_1-16);
      }

      .cls-7 {
        fill: url(#New_Gradient_Swatch_1-11);
      }

      .cls-8 {
        fill: url(#New_Gradient_Swatch_1-7);
      }

      .cls-9 {
        fill: url(#New_Gradient_Swatch_1-12);
      }

      .cls-10 {
        fill: url(#New_Gradient_Swatch_1-6);
      }

      .cls-11 {
        fill: url(#New_Gradient_Swatch_1-2);
      }

      .cls-12 {
        fill: url(#New_Gradient_Swatch_1-9);
      }

      .cls-13 {
        fill: url(#New_Gradient_Swatch_1-5);
      }

      .cls-14 {
        fill: url(#New_Gradient_Swatch_1-15);
      }

      .cls-15 {
        fill: url(#New_Gradient_Swatch_1-14);
      }

      .cls-16 {
        fill: url(#New_Gradient_Swatch_1);
      }
    </style>
    <linearGradient id="New_Gradient_Swatch_1" data-name="New Gradient Swatch 1" x1="27.29" y1="50.73" x2="121.21" y2="50.73" gradientUnits="userSpaceOnUse">
      <stop offset="0" stop-color="#c49889"/>
      <stop offset=".38" stop-color="#b27e6c"/>
      <stop offset=".76" stop-color="#a56955"/>
      <stop offset="1" stop-color="#a0624d"/>
    </linearGradient>
    <linearGradient id="New_Gradient_Swatch_1-2" data-name="New Gradient Swatch 1" x1="61.41" y1="89.46" x2="93.89" y2="89.46" xlink:href="#New_Gradient_Swatch_1"/>
    <linearGradient id="New_Gradient_Swatch_1-3" data-name="New Gradient Swatch 1" x1="53.62" y1="73.07" x2="95.44" y2="73.07" xlink:href="#New_Gradient_Swatch_1"/>
    <linearGradient id="New_Gradient_Swatch_1-4" data-name="New Gradient Swatch 1" x1="73.46" y1="79.03" x2="75.02" y2="79.03" xlink:href="#New_Gradient_Swatch_1"/>
    <linearGradient id="New_Gradient_Swatch_1-5" data-name="New Gradient Swatch 1" x1="42.19" y1="44.77" x2="112.27" y2="44.77" xlink:href="#New_Gradient_Swatch_1"/>
    <linearGradient id="New_Gradient_Swatch_1-6" data-name="New Gradient Swatch 1" x1="44.89" y1="59.67" x2="98.87" y2="59.67" xlink:href="#New_Gradient_Swatch_1"/>
    <linearGradient id="New_Gradient_Swatch_1-7" data-name="New Gradient Swatch 1" x1="92.86" y1="31.88" x2="98.3" y2="31.88" xlink:href="#New_Gradient_Swatch_1"/>
    <linearGradient id="New_Gradient_Swatch_1-8" data-name="New Gradient Swatch 1" x1="96.07" y1="34.31" x2="99.78" y2="34.31" xlink:href="#New_Gradient_Swatch_1"/>
    <linearGradient id="New_Gradient_Swatch_1-9" data-name="New Gradient Swatch 1" x1="33.26" y1="26.29" x2="34.81" y2="26.29" xlink:href="#New_Gradient_Swatch_1"/>
    <linearGradient id="New_Gradient_Swatch_1-10" data-name="New Gradient Swatch 1" x1="33.26" y1="28.66" x2="34.81" y2="28.66" xlink:href="#New_Gradient_Swatch_1"/>
    <linearGradient id="New_Gradient_Swatch_1-11" data-name="New Gradient Swatch 1" x1="33.26" y1="31.03" x2="34.81" y2="31.03" xlink:href="#New_Gradient_Swatch_1"/>
    <linearGradient id="New_Gradient_Swatch_1-12" data-name="New Gradient Swatch 1" x1="33.26" y1="23.92" x2="34.81" y2="23.92" xlink:href="#New_Gradient_Swatch_1"/>
    <linearGradient id="New_Gradient_Swatch_1-13" data-name="New Gradient Swatch 1" x1="33.26" y1="33.4" x2="34.81" y2="33.4" xlink:href="#New_Gradient_Swatch_1"/>
    <linearGradient id="New_Gradient_Swatch_1-14" data-name="New Gradient Swatch 1" x1="89.5" y1="85.15" x2="117.88" y2="85.15" xlink:href="#New_Gradient_Swatch_1"/>
    <linearGradient id="New_Gradient_Swatch_1-15" data-name="New Gradient Swatch 1" x1="0" y1="39.16" x2="37.31" y2="39.16" xlink:href="#New_Gradient_Swatch_1"/>
    <linearGradient id="New_Gradient_Swatch_1-16" data-name="New Gradient Swatch 1" x1="3.83" y1="85.26" x2="66.85" y2="85.26" xlink:href="#New_Gradient_Swatch_1"/>
  </defs>
  <g>
    <path class="cls-16" d="M114.47,15.69H34.03c-3.72,0-6.74,3.02-6.74,6.74v40.8c.06-.07.13-.14.19-.21.06-.07.12-.13.19-.19.25-.24.52-.45.81-.64.06-.04.13-.08.19-.12.06-.04.13-.07.19-.11V22.43c0-2.85,2.32-5.18,5.18-5.18h80.44c2.85,0,5.18,2.32,5.18,5.18v49.86h-7.7v1.56h7.7v5.18c0,2.85-2.32,5.18-5.18,5.18h-.97l.04.19.04.19.17.81.04.19.04.19h.65c3.72,0,6.74-3.02,6.74-6.74V22.43c0-3.72-3.02-6.74-6.74-6.74Z"/>
    <path class="cls-11" d="M91.41,93.93c0-.43-.35-.78-.78-.78h-2.65c-2.64-2.64-3.84-4-3.99-7.37h9.58l.04-.19.04-.19.17-.81.04-.19.04-.19h-32.48c.03.06.06.13.09.19.03.06.06.13.09.19.13.27.25.54.37.81.03.06.06.13.08.19.03.06.05.13.08.19h2.39c-.08,1.68-.41,2.86-1.05,3.94.02.09.05.17.07.26.02.09.04.18.06.26.08.35.17.71.24,1.06.02.08.03.16.05.24.02.09.03.17.04.26,1.25-1.55,2.05-3.22,2.17-6.03h16.34c.15,3.63,1.43,5.36,3.36,7.37h-21.66c0,.06.01.13.02.19,0,.06.01.13.02.19.03.27.07.54.09.81,0,.03,0,.05,0,.08h1.98c.25,0,.5.04.73.11.16.05.31.11.45.19h23.2c.43,0,.78-.35.78-.78Z"/>
    <polygon class="cls-2" points="95.44 73.67 95.44 73.48 95.44 72.67 95.44 72.48 95.44 72.29 53.62 72.29 53.62 72.48 53.62 72.67 53.62 73.48 53.62 73.67 53.62 73.86 95.44 73.86 95.44 73.67"/>
    <path class="cls-1" d="M73.46,79.03c0,.43.35.78.78.78s.78-.35.78-.78-.35-.78-.78-.78-.78.35-.78.78Z"/>
    <path class="cls-13" d="M57.09,53.71c0,.43.35.78.78.78s.78-.35.78-.78v-4.47c0-.43-.35-.78-.78-.78h-14.11v-10.35h22.27v11.13c0,.43.35.78.78.78s.78-.35.78-.78v-11.13h5.96v-2.27c0-.43-.35-.78-.78-.78s-.78.35-.78.78v.71h-28.23v-13.33h28.23v3.69c0,.43.35.78.78.78s.78-.35.78-.78v-3.69h7.37v3.69c0,.43.35.78.78.78s.78-.35.78-.78v-3.69h28.23v19.29h-28.23v-6.67c0-.43-.35-.78-.78-.78s-.78.35-.78.78v8.23h29.79v7.37h-3.69c-.43,0-.78.35-.78.78s.35.78.78.78h3.69v13.33h-1.14c.11.06.21.12.31.19.09.06.17.12.25.19.3.24.57.51.81.81.05.06.1.12.14.19.04.06.09.13.13.19h1.06V21.65H42.19v40.35c.06.03.13.07.19.11.06.04.13.07.19.12.29.19.56.41.81.65.07.07.13.14.19.2.06.07.13.14.19.21v-13.27h13.33v3.69Z"/>
    <path class="cls-10" d="M96.29,67.71c.05-.06.09-.13.14-.19.24-.3.51-.57.81-.81.08-.06.17-.13.25-.19.1-.07.21-.13.31-.19h-3.41v-13.33h3.69c.43,0,.78-.35.78-.78s-.35-.78-.78-.78h-8.94c-.43,0-.78.35-.78.78s.35.78.78.78h3.69v13.33h-16.31v-13.33h3.69c.43,0,.78-.35.78-.78s-.35-.78-.78-.78h-5.25v14.9h-16.31v-3.69c0-.43-.35-.78-.78-.78s-.78.35-.78.78v3.69h-12.2c0,.06,0,.12,0,.18h0v.34h3.6c.91,0,1.77.24,2.51.66.11.06.21.12.31.19.09.06.17.12.26.19h44.58c.04-.06.08-.13.13-.19Z"/>
    <path class="cls-8" d="M97.75,30.66l-4.89-1.56,1.5,5.01c.1.33.4.56.75.56.08,0,.15-.01.22-.03.2-.06.37-.19.46-.38.1-.18.12-.4.06-.59l-.65-2.18,2.07.66c.2.06.41.05.6-.05.19-.1.32-.26.38-.46.06-.2.05-.41-.05-.6-.1-.19-.26-.32-.46-.39Z"/>
    <path class="cls-3" d="M96.3,32.64c-.15.15-.23.34-.24.55,0,.21.08.41.22.56l2.14,2.22c.15.15.35.24.56.24.2,0,.4-.08.54-.22.15-.15.23-.34.24-.55,0-.21-.07-.41-.22-.56l-2.14-2.22c-.3-.31-.8-.32-1.11-.02Z"/>
    <path class="cls-12" d="M34.03,27.07c.44,0,.78-.34.78-.78s-.35-.78-.78-.78-.78.35-.78.78.35.78.78.78Z"/>
    <path class="cls-5" d="M34.03,29.44c.44,0,.78-.34.78-.78s-.35-.78-.78-.78-.78.35-.78.78.34.78.78.78Z"/>
    <path class="cls-7" d="M34.03,31.81c.44,0,.78-.34.78-.78s-.35-.78-.78-.78-.78.35-.78.78.34.78.78.78Z"/>
    <path class="cls-9" d="M34.03,24.7c.44,0,.78-.34.78-.78s-.35-.78-.78-.78-.78.35-.78.78.35.78.78.78Z"/>
    <path class="cls-4" d="M34.03,34.18c.44,0,.78-.34.78-.78s-.35-.78-.78-.78-.78.35-.78.78.35.78.78.78Z"/>
    <path class="cls-15" d="M117.1,97.03h-2.49l-2.33-11.26-.04-.19-.04-.19-.17-.81-.04-.19-.04-.19-1.52-7.33v-6.48c0-1.02-.49-1.92-1.23-2.5-.09-.07-.18-.13-.28-.19-.11-.07-.23-.13-.36-.19-.39-.18-.83-.28-1.29-.28h-2.8v-5.18c0-.43-.35-.78-.78-.78s-.78.35-.78.78v5.18h-2.8c-.46,0-.9.1-1.29.28-.12.06-.24.12-.36.19-.1.06-.19.12-.28.19-.75.58-1.23,1.48-1.23,2.5v6.48l-1.52,7.33-.04.19-.04.19-.17.81-.04.19-.04.19-2.33,11.26h-2.49c-.43,0-.78.35-.78.78s.35.78.78.78h2.16l-.97,4.68c-.15,1.07.16,2.15.87,2.97.43.5.99.87,1.62,1.08v.91c0,.43.35.78.78.78s.78-.35.78-.78v-.74c1.7-.17,3.09-1.46,3.32-3.13l1.19-5.78h7.29l1.18,5.73c.24,1.7,1.63,3.01,3.33,3.17v.74c0,.43.35.78.78.78s.78-.35.78-.78v-.91c.63-.21,1.18-.59,1.62-1.08.71-.82,1.03-1.92.87-3.02l-.96-4.63h2.16c.43,0,.78-.35.78-.78s-.35-.78-.78-.78ZM98.52,73.86v-3.46c0-.88.71-1.59,1.59-1.59h7.17c.88,0,1.59.71,1.59,1.59v5.78h-10.35v-2.32ZM106.26,85.58l-.04-.19-.17-.81-.04-.19-.04-.19-1.33-6.47h4.36l1.34,6.47.04.19.04.19.17.81.04.19.04.19,3.67,17.72c.09.62-.1,1.25-.51,1.73-.41.47-1.01.75-1.64.75-1.07,0-2-.82-2.15-1.91l-3.76-18.29-.04-.19ZM101.12,85.58l-.04.19-3.76,18.34c-.15,1.06-1.07,1.86-2.15,1.86-.63,0-1.22-.27-1.64-.75-.4-.47-.6-1.1-.52-1.68l3.68-17.77.04-.19.04-.19.17-.81.04-.19.04-.19,1.34-6.47h4.36l-1.33,6.47-.04.19-.04.19-.17.81-.04.19ZM102.68,85.77l.04-.19.04-.19.17-.81.04-.19.04-.19.69-3.36.69,3.36.04.19.04.19.17.81.04.19.04.19,2.31,11.26h-6.65l2.31-11.26Z"/>
    <path class="cls-14" d="M37.31,6.93L26.33,0h-15.35L0,7.06v3.44h13.41v67.81c.06-.08.13-.15.19-.23.06-.08.12-.15.19-.23.26-.3.53-.59.81-.88.06-.07.12-.14.19-.21.06-.07.13-.13.19-.2V1.56h7.37v65.3c.06,0,.12,0,.18,0h1.38V10.5h13.41v-3.57ZM1.56,7.91l5.88-3.78v4.1c0,.31.18.58.45.71H1.56v-1.02ZM9.01,8.23V3.76c0-.19-.07-.37-.19-.51l2.62-1.69h1.97v7.37h-4.84c.26-.13.45-.4.45-.71ZM35.75,7.79v1.14h-6.33c.26-.13.45-.4.45-.71v-4.15l5.88,3.71ZM28.3,3.76v4.47c0,.31.18.58.45.71h-4.84V1.56h1.97l2.63,1.66c-.13.14-.21.33-.21.53Z"/>
  </g>
  <path class="cls-6" d="M66.08,96.92h-3.59c-.01-.47-.04-.94-.08-1.4,0-.06,0-.13-.01-.19,0-.06-.01-.13-.02-.19-.03-.27-.06-.54-.09-.81,0-.06-.02-.13-.02-.19,0-.05-.01-.1-.02-.16-.01-.08-.02-.16-.03-.24-.05-.33-.11-.67-.17-1-.01-.08-.03-.15-.04-.23-.02-.08-.03-.16-.05-.24-.4-1.97-1.02-3.88-1.84-5.7-.03-.06-.06-.13-.09-.19-.03-.06-.06-.13-.09-.19-.13-.27-.26-.54-.39-.81-.03-.06-.06-.13-.1-.19-.03-.06-.07-.13-.1-.19-1.49-2.83-3.48-5.4-5.89-7.58-.55-.49-1.11-.97-1.7-1.42v-3.24c0-1.89-1.53-3.42-3.42-3.42h-5.3v-2.05c0-.73-.23-1.41-.63-1.97-.06-.08-.12-.17-.19-.25-.06-.07-.12-.14-.19-.21-.62-.62-1.47-1-2.41-1h-8.55c-.92,0-1.75.37-2.36.96-.07.06-.13.13-.19.2-.07.07-.13.15-.19.23-.42.57-.68,1.27-.68,2.03v2.05h-5.28c-.06,0-.12,0-.18,0-1.8.1-3.24,1.58-3.24,3.41v3.21c-.59.45-1.16.92-1.7,1.41-.87.78-1.68,1.61-2.43,2.48-.06.07-.13.15-.19.22-.06.08-.13.15-.19.23-.28.34-.55.68-.81,1.02-.06.09-.13.17-.19.26-.06.09-.13.17-.19.26-3.12,4.37-4.93,9.61-5.09,15.05h-3.56c-.42,0-.77.34-.77.77v8.16c0,.42.34.77.77.77h61.49c.42,0,.77-.34.77-.77v-8.16c0-.42-.34-.77-.77-.77ZM65.31,105.08H5.36v-6.63h3.55c.42,0,.77-.34.77-.77,0-4.61,1.27-9.09,3.56-13,.06-.11.13-.21.19-.32.06-.1.13-.21.19-.31.26-.41.53-.82.81-1.21.06-.09.13-.17.19-.26.06-.09.12-.18.19-.26.74-.99,1.55-1.93,2.43-2.82.54-.54,1.11-1.06,1.7-1.56v12.47c0,.42.34.77.77.77s.77-.34.77-.77v-17.65c0-.98.75-1.77,1.7-1.86.06,0,.12-.02.18-.02h5.28v14.23c0,.42.34.77.77.77s.77-.34.77-.77v-17.81c0-1.04.84-1.88,1.88-1.88h8.55c1.04,0,1.88.85,1.88,1.88v17.81s0,.05,0,.07c0,.07.02.13.04.19.11.29.39.5.72.5s.61-.21.72-.5c.02-.06.04-.12.04-.19,0-.02,0-.05,0-.07v-14.23h5.3c1.04,0,1.88.84,1.88,1.88v17.65c0,.42.34.77.77.77s.77-.34.77-.77v-12.44c.59.5,1.16,1.02,1.7,1.57,1.62,1.64,3.01,3.47,4.13,5.46.04.06.07.13.11.19.04.06.07.13.11.19.15.27.29.54.42.81.03.06.06.13.09.19.03.06.06.13.09.19,1.07,2.23,1.83,4.62,2.23,7.08.01.08.03.15.04.23.01.08.02.16.03.23.05.34.09.68.12,1.02,0,.06.01.13.02.19,0,.06.01.13.02.19.06.72.09,1.45.09,2.17,0,.42.34.77.77.77h3.58v6.63Z"/>
</svg>