<?xml version="1.0" encoding="UTF-8"?>
<svg id="Layer_1" data-name="Layer 1" xmlns="http://www.w3.org/2000/svg" xmlns:xlink="http://www.w3.org/1999/xlink" viewBox="0 0 122.12 103.34">
  <defs>
    <style>
      .cls-1 {
        fill: url(#New_Gradient_Swatch_1);
      }
    </style>
    <linearGradient id="New_Gradient_Swatch_1" data-name="New Gradient Swatch 1" x1="0" y1="51.67" x2="122.12" y2="51.67" gradientUnits="userSpaceOnUse">
      <stop offset="0" stop-color="#c49889"/>
      <stop offset=".38" stop-color="#b27e6c"/>
      <stop offset=".76" stop-color="#a56955"/>
      <stop offset="1" stop-color="#a0624d"/>
    </linearGradient>
  </defs>
  <path class="cls-1" d="M122.11,23.34s0-.04-.01-.06c0-.02-.01-.04-.02-.06,0-.03-.02-.05-.03-.07l-.03-.05s-.03-.04-.04-.06c-.01-.02-.03-.04-.04-.05-.01-.01-.03-.03-.05-.04-.02-.01-.03-.03-.05-.04-.02-.01-.04-.02-.06-.04-.02-.01-.04-.02-.06-.03-.02,0-.04-.02-.06-.02-.03,0-.05-.02-.07-.02-.02,0-.04,0-.06-.01-.03,0-.05,0-.07,0h-48.19s-.05-.02-.05-.02L21.92.3s-.07-.02-.1-.03c-.07-.02-.09-.02-.11-.02L21.66,0s0,0,0,0v.25s-5.71,0-5.71,0c-.05,0-.09,0-.13.01-.06.01-.09.02-.12.03-.06.03-.09.04-.11.06l-.19-.17h0s.15.2.15.2c-.02.02-.04.03-.06.05l-.04.04s-.04.04-.05.06L.12,23.06s-.05.08-.07.12c-.02.07-.03.1-.04.13v.13s-.01,6.79-.01,6.79c0,.37.3.68.68.68h2.01v3.1c0,.37.3.68.68.68h6.71c.37,0,.68-.3.68-.68v-3.1h1.33v70.4h-2.24c-.5,0-.9.42-.9.94s.4.94.9.94h2.49s.03.04.05.05l.19.08,2.72-.14h104.6c.5,0,.9-.42.9-.94s-.4-.94-.9-.94h-6.44v-2.61l.39-.09c2.09-.46,3.6-2.39,3.6-4.6-.15-2.94-1.69-13.97-4.55-13.97s-4.39,11.03-4.55,13.99c0,2.19,1.52,4.12,3.6,4.58l.39.09v2.61h-11.13v-26.47l5.41,6.41c.31.37.9.41,1.26.09.38-.34.42-.95.09-1.34l-37.74-44.69c-.17-.2-.41-.31-.66-.32-.27.02-.5.12-.66.29l-14.3,15.57h-18.6c-.5,0-.9.42-.9.94v49.51h-9.6V30.92h95.94c.37,0,.68-.3.68-.68v-6.79c0-.06,0-.08-.01-.11ZM111.67,97.32c-1.32-.52-2.21-1.85-2.21-3.29,0-2.42,1.61-11.19,3.1-12.6l.34-.32.34.32c1.49,1.4,3.1,10.17,3.1,12.6,0,1.45-.89,2.77-2.21,3.29l-.68.27v-2.53c0-.32-.25-.58-.55-.58s-.55.26-.55.58v2.53l-.68-.27ZM57.48,101.32h-10.78v-11.09h10.78v11.09ZM57.48,88.34h-10.78v-26.94h10.78v26.94ZM77.05,101.32h-12.18v-26.94h12.18v26.94ZM99.42,101.32h-20.57v-26.94h20.57v26.94ZM69.53,37.34l29.68,35.15h-34.35v-20.68c0-.52-.4-.94-.9-.94h-6.86l12.42-13.52ZM36.91,52.75h26.16v48.57h-3.79v-40.86c0-.52-.4-.94-.9-.94h-12.58c-.5,0-.9.42-.9.94v40.86h-7.98v-48.57ZM16.53,1.6h4.52l3,21.16h-10.51L16.53,1.6ZM13.43,65.79v-9.42l9.72,9.42h-9.72ZM23.19,67.15l-9.76,9.76v-9.76h9.76ZM13.43,41.64v-9.76l9.76,9.76h-9.76ZM23.23,42.99l-9.8,10.1v-10.1h9.8ZM22.24,24.12l-8.81,4.95v-4.95h8.81ZM9.39,33.33h-5.35v-2.42h5.35v2.42ZM1.36,29.56v-4.95l8.81,4.95H1.36ZM12.08,29.08l-8.81-4.95h8.81v4.95ZM12.17,22.77H1.96L14.86,3.73l-2.69,19.03ZM23.19,89.94h-9.76v-9.76l9.76,9.76ZM13.43,91.3h9.76l-9.76,9.76v-9.76ZM24.15,101.32h-9.06l9.06-9.06v9.06ZM24.15,88.98l-9.76-9.76h9.76v9.76ZM24.15,77.87h-9.76l9.76-9.76v9.76ZM24.15,64.87l-10.11-9.8h10.11v9.8ZM24.15,53.71h-9.43l9.43-9.72v9.72ZM24.15,40.68l-9.76-9.76h9.76v9.76ZM24.15,29.56h-8.81l8.81-4.95v4.95ZM25.42,22.77l-2.93-20.73,47.41,20.73H25.42ZM25.51,29.56v-4.95l8.81,4.95h-8.81ZM36.23,29.08l-8.81-4.95h8.81v4.95ZM37.59,24.12h8.81l-8.81,4.95v-4.95ZM48.31,29.56h-8.81l8.81-4.95v4.95ZM49.66,29.56v-4.95l8.81,4.95h-8.81ZM60.38,29.08l-8.81-4.95h8.81v4.95ZM61.74,24.12h8.81l-8.81,4.95v-4.95ZM72.46,29.56h-8.81l8.81-4.95v4.95ZM73.82,29.56v-4.95l8.81,4.95h-8.81ZM84.54,29.08l-8.81-4.95h8.81v4.95ZM85.89,24.12h8.81l-8.81,4.95v-4.95ZM96.61,29.56h-8.81l8.81-4.95v4.95ZM97.97,29.56v-4.95l8.81,4.95h-8.81ZM108.69,29.08l-8.81-4.95h8.81v4.95ZM110.05,24.12h8.81l-8.81,4.95v-4.95ZM120.77,29.56h-8.81l8.81-4.95v4.95Z"/>
</svg>