<?xml version="1.0" encoding="UTF-8"?>
<svg id="Layer_1" data-name="Layer 1" xmlns="http://www.w3.org/2000/svg" xmlns:xlink="http://www.w3.org/1999/xlink" viewBox="0 0 121 104.22">
  <defs>
    <style>
      .cls-1 {
        fill: url(#New_Gradient_Swatch_1-4);
      }

      .cls-2 {
        fill: url(#New_Gradient_Swatch_1-3);
      }

      .cls-3 {
        fill: url(#New_Gradient_Swatch_1-6);
      }

      .cls-4 {
        fill: url(#New_Gradient_Swatch_1-2);
      }

      .cls-5 {
        fill: url(#New_Gradient_Swatch_1-5);
      }

      .cls-6 {
        fill: url(#New_Gradient_Swatch_1);
      }
    </style>
    <linearGradient id="New_Gradient_Swatch_1" data-name="New Gradient Swatch 1" x1="30.7" y1="96.19" x2="30.7" y2="96.19" gradientUnits="userSpaceOnUse">
      <stop offset="0" stop-color="#c49889"/>
      <stop offset=".38" stop-color="#b27e6c"/>
      <stop offset=".76" stop-color="#a56955"/>
      <stop offset="1" stop-color="#a0624d"/>
    </linearGradient>
    <linearGradient id="New_Gradient_Swatch_1-2" data-name="New Gradient Swatch 1" x1="0" y1="62.7" x2="50.17" y2="62.7" xlink:href="#New_Gradient_Swatch_1"/>
    <linearGradient id="New_Gradient_Swatch_1-3" data-name="New Gradient Swatch 1" x1="22.34" y1="86.99" x2="22.34" y2="86.99" xlink:href="#New_Gradient_Swatch_1"/>
    <linearGradient id="New_Gradient_Swatch_1-4" data-name="New Gradient Swatch 1" x1="9.2" y1="76.09" x2="35.43" y2="76.09" xlink:href="#New_Gradient_Swatch_1"/>
    <linearGradient id="New_Gradient_Swatch_1-5" data-name="New Gradient Swatch 1" x1="27.27" y1="36.57" x2="103.08" y2="36.57" xlink:href="#New_Gradient_Swatch_1"/>
    <linearGradient id="New_Gradient_Swatch_1-6" data-name="New Gradient Swatch 1" x1="82.75" y1="72.96" x2="121" y2="72.96" xlink:href="#New_Gradient_Swatch_1"/>
  </defs>
  <polygon class="cls-6" points="30.7 96.19 30.7 96.19 30.7 96.19 30.7 96.19"/>
  <path class="cls-4" d="M49.12,27.02h-5.61c-.27,0-.54.11-.74.31-.2.2-.31.47-.31.73l.03,25.75h-.11l-13.52-.02v-7.31c0-.36-.2-.7-.51-.89-.31-.19-.69-.21-1.02-.04-4.87,2.46-10.7,2.46-15.58-.02-.15-.08-.31-.11-.47-.11-.19,0-.38.05-.55.16-.32.19-.5.53-.5.89v7.81s-.07.02-.07.02c-2.29.64-4.39,1.87-6.09,3.56C1.44,60.48,0,63.98,0,67.71l.02,16.69c0,7.7,6.28,13.97,13.98,13.98l16.68.02c3.74,0,7.24-1.45,9.86-4.08,2.63-2.63,4.08-6.13,4.07-9.86l-.06-55.35h4.56c.58,0,1.05-.47,1.05-1.04,0-.28-.11-.54-.31-.74-.2-.2-.46-.31-.74-.31ZM12.48,48.14c4.49,1.76,9.64,1.77,14.13.01l.15-.06v5.69s-.1,0-.1,0l-14.32-.02v-5.69s.14.06.14.06ZM39.07,92.84c-2.23,2.23-5.2,3.46-8.37,3.46h-.01l-16.69-.02c-6.55,0-11.88-5.34-11.89-11.89l-.02-16.69c0-3.17,1.23-6.14,3.46-8.38,2.23-2.23,5.2-3.46,8.37-3.46l28.57.03v.11l.03,28.45c0,3.17-1.23,6.14-3.46,8.38Z"/>
  <polygon class="cls-2" points="22.34 86.99 22.34 86.99 22.34 86.99 22.34 86.99"/>
  <path class="cls-1" d="M22.3,62.97h-.02c-3.5,0-6.78,1.36-9.25,3.83-2.48,2.47-3.84,5.77-3.83,9.27,0,7.23,5.9,13.12,13.13,13.13,3.51,0,6.8-1.36,9.27-3.83,2.47-2.47,3.83-5.77,3.83-9.27,0-7.23-5.9-13.12-13.13-13.13ZM30.11,83.88c-2.08,2.08-4.84,3.22-7.77,3.22h-.01c-6.08,0-11.03-4.96-11.03-11.03,0-2.94,1.14-5.71,3.22-7.78,2.07-2.07,4.83-3.22,7.77-3.22,6.09,0,11.04,4.95,11.04,11.03,0,2.94-1.14,5.71-3.22,7.78Z"/>
  <path class="cls-5" d="M67.6,39.87h-3.03v-7.08s.08-.02.08-.02l37.6-8.15c.2-.04.38-.14.52-.28.2-.2.31-.46.31-.74v-14.92c0-.58-.47-1.05-1.05-1.05h-8.76s0-3.34,0-3.34c0-1.14-.45-2.22-1.25-3.03-.81-.81-1.88-1.25-3.03-1.25h-50.93c-2.28,0-4.28,2-4.28,4.28v3.33h-4.41V2.98c0-.28-.11-.54-.31-.74-.2-.2-.46-.31-.74-.31-.58,0-1.05.47-1.05,1.05v11.38c0,.58.47,1.05,1.05,1.05.28,0,.54-.11.74-.31.2-.2.31-.46.31-.74v-4.64s4.41,0,4.41,0v3.34c0,2.36,1.92,4.28,4.28,4.28h50.93c1.14,0,2.22-.45,3.03-1.25.81-.81,1.25-1.88,1.25-3.03v-3.33s7.71,0,7.71,0v13.03s-.08.02-.08.02l-37.6,8.15c-.49.11-.82.53-.82,1.03v7.93s-3.02,0-3.02,0c-2.28,0-4.28,2-4.28,4.28v24.7c0,1.14.44,2.22,1.26,3.03.81.81,1.88,1.26,3.03,1.26h8.15c1.15,0,2.22-.45,3.03-1.25.81-.81,1.25-1.88,1.25-3.03v-24.71c0-1.14-.44-2.22-1.25-3.03-.81-.81-1.89-1.25-3.03-1.25ZM90.52,14.58c-.42.42-.97.65-1.53.65h-50.93c-1.21,0-2.19-.98-2.19-2.19V4.28c0-.58.23-1.13.64-1.54.41-.41.96-.64,1.55-.64h50.93c.58,0,1.13.23,1.54.64.41.41.64.96.64,1.54v8.77c0,.56-.24,1.11-.65,1.53ZM69.78,68.86c0,1.16-1.02,2.19-2.18,2.19h-8.15c-1.21,0-2.19-.98-2.19-2.19v-24.7c0-1.16,1.02-2.19,2.19-2.19h8.15c.58,0,1.13.23,1.54.64.41.41.64.96.64,1.54v24.71Z"/>
  <path class="cls-3" d="M119.89,85.99c-.52-.52-1.17-.87-1.88-1.02v-12.11c0-2.06-1.68-3.74-3.74-3.74h-.89s0-1.89,0-1.89c0-1-.39-1.94-1.09-2.64-.71-.71-1.64-1.09-2.64-1.09h-.68v-10.66c0-4.82-3.93-8.75-8.75-8.75-2.34,0-4.54.91-6.19,2.56-1.65,1.65-2.56,3.85-2.56,6.19v26.77c0,1.75-1.54,3.29-3.29,3.29-.88,0-1.7-.34-2.32-.96-.62-.62-.96-1.45-.96-2.32v-36.84c0-.59-.48-1.07-1.07-1.07-.29,0-.55.11-.76.31h0c-.2.2-.31.47-.31.76v36.84c0,2.99,2.43,5.43,5.43,5.43,1.38,0,2.77-.59,3.8-1.63,1.03-1.03,1.62-2.42,1.62-3.8v-26.77c0-1.77.69-3.43,1.94-4.68,1.25-1.25,2.91-1.94,4.68-1.94,3.65,0,6.61,2.97,6.61,6.61v10.66h-.68c-1,0-1.93.39-2.64,1.1-.71.71-1.1,1.64-1.1,2.64v1.89s-.89,0-.89,0c-1,0-1.93.39-2.64,1.09h0c-.71.71-1.09,1.64-1.09,2.64v12.11c-.7.15-1.35.5-1.87,1.02-.72.72-1.12,1.67-1.12,2.69,0,1.02.39,1.97,1.11,2.69.72.72,1.67,1.11,2.68,1.11h2.19v10.67c0,.59.48,1.07,1.07,1.07s1.07-.48,1.07-1.07v-10.67h9.95v10.67c0,.29.11.55.31.76.2.2.47.31.76.31.59,0,1.07-.48,1.07-1.07v-10.67h2.18c2.09,0,3.8-1.7,3.8-3.8,0-1.02-.4-1.97-1.11-2.69ZM106.15,65.63h3.5c.43,0,.83.17,1.13.47.3.3.47.7.47,1.13v1.89s-3.35,0-3.35,0h-3.35s0-1.89,0-1.89c0-.88.72-1.6,1.6-1.6ZM99.93,72.86c0-.42.17-.83.47-1.13s.7-.47,1.13-.47h4.73s6.06,0,6.06,0c0,0,0,0,0,0h1.95c.88,0,1.6.72,1.6,1.6v12.02h-15.94v-12.02ZM118.37,89.85c-.32.31-.73.49-1.18.49h-18.59c-.44,0-.86-.17-1.17-.48-.31-.31-.49-.73-.49-1.18,0-.92.75-1.66,1.66-1.66h18.6s0,0,0,0c.44,0,.86.17,1.17.48.31.31.49.73.49,1.18,0,.44-.17.86-.49,1.17Z"/>
</svg>