<?xml version="1.0" encoding="UTF-8"?>
<svg id="Layer_1" data-name="Layer 1" xmlns="http://www.w3.org/2000/svg" xmlns:xlink="http://www.w3.org/1999/xlink" viewBox="0 0 126.8 109.49">
  <defs>
    <style>
      .cls-1 {
        fill: url(#New_Gradient_Swatch_1);
      }

      .cls-1, .cls-2, .cls-3, .cls-4 {
        fill-rule: evenodd;
      }

      .cls-2 {
        fill: url(#New_Gradient_Swatch_1-3);
      }

      .cls-3 {
        fill: url(#New_Gradient_Swatch_1-4);
      }

      .cls-4 {
        fill: url(#New_Gradient_Swatch_1-2);
      }
    </style>
    <linearGradient id="New_Gradient_Swatch_1" data-name="New Gradient Swatch 1" x1="0" y1="54.86" x2="35.52" y2="54.86" gradientUnits="userSpaceOnUse">
      <stop offset="0" stop-color="#c49889"/>
      <stop offset=".38" stop-color="#b27e6c"/>
      <stop offset=".76" stop-color="#a56955"/>
      <stop offset="1" stop-color="#a0624d"/>
    </linearGradient>
    <linearGradient id="New_Gradient_Swatch_1-2" data-name="New Gradient Swatch 1" x1="8.63" y1="19.71" x2="26.9" y2="19.71" xlink:href="#New_Gradient_Swatch_1"/>
    <linearGradient id="New_Gradient_Swatch_1-3" data-name="New Gradient Swatch 1" x1="45.29" y1="54.75" x2="126.8" y2="54.75" xlink:href="#New_Gradient_Swatch_1"/>
    <linearGradient id="New_Gradient_Swatch_1-4" data-name="New Gradient Swatch 1" x1="50.36" y1="45.54" x2="57.87" y2="45.54" xlink:href="#New_Gradient_Swatch_1"/>
  </defs>
  <path class="cls-1" d="M34.23.34H1.3c-.35,0-.67.13-.92.38S0,1.29,0,1.64v18.08c0,.32.12.63.34.87l5.82,6.39-.14.08c-.08.05-.14.1-.2.16-.1.1-.18.22-.24.34l-4.3,8.7c-.24.48-.16,1.04.2,1.44l5.89,6.58-.04.08-3.87,7.87c-.24.48-.16,1.04.2,1.43l5.9,6.59-.04.08-3.87,7.86c-.23.48-.16,1.04.2,1.43l5.9,6.61-.04.08-3.87,7.86c-.23.48-.16,1.04.2,1.44l5.9,6.62-3.91,7.97c-.23.48-.16,1.04.2,1.43l6.49,7.29c.25.28.6.43.97.43h12.71c.71,0,1.3-.58,1.3-1.3V39.09h2.57c.71,0,1.3-.58,1.3-1.3V1.64c0-.71-.58-1.3-1.29-1.3ZM29.07,106.78h-10.83s-.04-.04-.04-.04l-5.48-6.16,3.91-7.97c.23-.48.16-1.04-.2-1.43l-5.9-6.62,3.91-7.94c.23-.48.16-1.04-.2-1.44l-5.9-6.61,3.91-7.95c.23-.48.16-1.04-.2-1.44l-5.9-6.59.04-.08,3.87-7.87c.24-.48.16-1.04-.2-1.44l-5.89-6.58,3.86-7.8,8.96,9.84c.25.27.59.42.96.42h11.31s0,67.7,0,67.7ZM32.93,36.49h-14.54s-.06,0-.06,0L2.59,19.21V2.93h30.34s0,33.56,0,33.56Z"/>
  <path class="cls-4" d="M20.61,30.04c.25.27.6.42.96.42h4.03c.69,0,1.3-.61,1.3-1.3V10.26c0-.35-.14-.67-.38-.92-.24-.24-.57-.38-.92-.38h-15.68c-.35,0-.67.14-.92.38-.24.24-.38.57-.38.92v6.11c0,.32.12.63.34.87l11.65,12.79ZM11.22,11.56h13.09s0,16.31,0,16.31h-2.16l-10.93-12v-4.32Z"/>
  <path class="cls-2" d="M123.72,15.21c1.73,0,3.08-1.35,3.08-3.08V3.14c0-1.73-1.35-3.14-3.08-3.14H48.43c-1.73,0-3.14,1.41-3.14,3.14v8.99c0,1.71,1.38,3.04,3.08,3.07v16.18h-1.99c-.58,0-1.09.45-1.09,1.09v17.78c0,1.93,1.3,3.55,3.08,4.02v51.94c0,1.8,1.54,3.27,3.34,3.27h26.44c1.86,0,3.34-1.48,3.34-3.27v-5.71c0-1.86-1.48-3.34-3.34-3.34h-8.66v-42.88c1.76-.47,3.08-2.09,3.08-4.03v-3.66h27.66v12h-5.01c-.58,0-1.09.45-1.09,1.09,0,.58.51,1.03,1.09,1.03h12.13c.58,0,1.03-.45,1.03-1.03,0-.64-.45-1.09-1.03-1.09h-5.01v-12h10.33c7.77,0,14.12-6.35,14.12-14.12,0-.64-.45-1.09-1.03-1.09h-23.43v-4.36h5.01c.58,0,1.03-.51,1.03-1.09s-.45-1.09-1.03-1.09h-12.13c-.58,0-1.09.51-1.09,1.09s.51,1.09,1.09,1.09h5.01v4.36h-30.74V15.21h54.23ZM78.15,99.29c.64,0,1.22.51,1.22,1.22v5.71c0,.64-.58,1.16-1.22,1.16h-18.1v-41.08c0-1.22.96-2.25,2.25-2.25.58,0,1.03-.45,1.03-1.09,0-.58-.45-1.03-1.03-1.03-2.44,0-4.43,1.99-4.43,4.36v41.08h-6.16c-.64,0-1.16-.51-1.16-1.16v-51.79h16.82v43.77c0,.64.45,1.09,1.09,1.09h9.69ZM124.62,33.5c-.51,6.16-5.71,10.97-11.94,10.97h-51.92c-.58,0-1.09.45-1.09,1.03,0,.64.51,1.09,1.09,1.09h9.69v3.66c0,1.16-.9,2.05-1.99,2.05h-19c-1.09,0-1.99-.9-1.99-2.05v-16.75h77.15ZM50.55,31.38V15.21h16.82v16.17h-16.82ZM48.43,13.09c-.58,0-.96-.45-.96-.96V3.14c0-.58.39-.96.96-.96h75.28c.51,0,.96.39.96.96v8.99c0,.51-.45.96-.96.96H48.43Z"/>
  <path class="cls-3" d="M51.45,46.6h5.33c.64,0,1.09-.45,1.09-1.09,0-.58-.45-1.03-1.09-1.03h-5.33c-.58,0-1.09.45-1.09,1.03,0,.64.51,1.09,1.09,1.09Z"/>
</svg>