<?xml version="1.0" encoding="UTF-8"?>
<svg id="Layer_1" data-name="Layer 1" xmlns="http://www.w3.org/2000/svg" xmlns:xlink="http://www.w3.org/1999/xlink" viewBox="0 0 657.2 120.47">
  <defs>
    <style>
      .cls-1 {
        fill: #fff;
      }

      .cls-2 {
        fill: url(#linear-gradient);
      }
    </style>
    <linearGradient id="linear-gradient" x1="44.29" y1="-.33" x2="138.01" y2="35.16" gradientUnits="userSpaceOnUse">
      <stop offset="0" stop-color="#c49889"/>
      <stop offset="1" stop-color="#a0624d"/>
    </linearGradient>
  </defs>
  <g>
    <path class="cls-1" d="M175.96,105.06c.42,0,.62.16.62.48v2.09c0,.32-.21.48-.62.48h-11.87c-.71,0-1.29.05-1.75.14-.46.1-.83.26-1.11.48-.28.23-.48.54-.58.93s-.16.87-.16,1.44v.22h15.34c.4,0,.6.16.6.48v1.74c0,.32-.2.48-.6.48h-15.34v.37c0,.57.05,1.05.16,1.44s.3.7.58.93.65.39,1.11.48c.46.1,1.04.14,1.75.14h11.87c.42,0,.62.16.62.48v2.09c0,.32-.21.48-.62.48h-11.95c-1.38,0-2.54-.1-3.5-.31-.96-.21-1.74-.54-2.35-1-.61-.46-1.05-1.06-1.33-1.8s-.42-1.64-.42-2.7v-3.79c0-1.06.14-1.95.42-2.69.28-.73.72-1.33,1.33-1.79.61-.46,1.39-.8,2.35-1.01.96-.21,2.13-.32,3.5-.32h11.95Z"/>
    <path class="cls-1" d="M209.45,105.06c.4,0,.6.16.6.48v2.09c0,.32-.2.48-.6.48h-13.61c-.52,0-.9.11-1.11.33-.22.22-.33.52-.33.9v.75c0,.82.47,1.23,1.41,1.23h10.18c1.57,0,2.76.33,3.56.98s1.19,1.59,1.19,2.81v1.76c0,1.07-.39,1.94-1.17,2.6-.78.66-1.99.99-3.64.99h-15.05c-.42,0-.62-.16-.62-.48v-2.09c0-.32.21-.48.62-.48h14.26c.52,0,.9-.11,1.11-.33.22-.22.33-.52.33-.9v-.9c0-.82-.47-1.23-1.41-1.23h-10.18c-1.58,0-2.76-.33-3.56-.98s-1.2-1.59-1.2-2.81v-1.61c0-1.07.39-1.94,1.17-2.6.78-.66,1.99-.99,3.64-.99h14.39Z"/>
    <path class="cls-1" d="M228.27,105.06c.4,0,.6.16.6.48v14.44c0,.32-.2.48-.6.48h-2.93c-.42,0-.62-.16-.62-.48v-14.44c0-.32.21-.48.62-.48h2.93Z"/>
    <path class="cls-1" d="M264.49,105.06c.4,0,.6.16.6.48v2.16c0,.34-.2.5-.6.5h-13.61c-.71,0-1.29.05-1.75.14-.46.1-.83.26-1.1.48-.27.23-.47.53-.58.91-.12.38-.18.86-.18,1.45v3.17c0,.59.06,1.07.18,1.46.12.39.31.7.58.93.27.23.64.39,1.1.48.46.1,1.04.14,1.75.14h8.96c.47,0,.81-.1,1.03-.3.22-.2.33-.55.33-1.05v-1.78c0-.19-.11-.29-.33-.29h-7.96c-.4,0-.6-.17-.6-.51v-1.65c0-.34.2-.51.6-.51h11.32c.54,0,.81.22.81.66v5.13c0,1.23-.29,2.1-.87,2.61-.58.51-1.41.76-2.5.76h-10.97c-1.38,0-2.54-.1-3.5-.31-.96-.21-1.74-.54-2.35-1-.61-.46-1.05-1.06-1.33-1.8s-.42-1.64-.42-2.7v-3.79c0-1.06.14-1.95.42-2.69.28-.73.72-1.33,1.33-1.79.61-.46,1.39-.8,2.35-1.01.96-.21,2.13-.32,3.5-.32h13.77Z"/>
    <path class="cls-1" d="M284.18,105.06c.43,0,.8.01,1.09.04.29.03.54.09.76.19.22.1.43.23.62.4s.43.39.68.67l10.1,10.74c.07.1.19.15.35.15h.24c.15,0,.22-.07.22-.22v-11.49c0-.32.2-.48.6-.48h2.85c.4,0,.6.16.6.48v12.64c0,.9-.2,1.5-.6,1.82-.4.32-1.01.47-1.85.47h-2.34c-.42,0-.77-.01-1.04-.04-.28-.03-.53-.09-.75-.17-.22-.09-.43-.22-.64-.39-.21-.17-.45-.4-.72-.69l-10.13-10.74c-.11-.1-.23-.15-.35-.15h-.24c-.14,0-.22.07-.22.22v11.49c0,.32-.2.48-.6.48h-2.85c-.42,0-.62-.16-.62-.48v-12.64c0-.89.2-1.5.6-1.82.4-.32,1.01-.47,1.85-.47h2.39Z"/>
    <path class="cls-1" d="M348.09,103.54c1,0,1.72.22,2.19.65s.69.97.69,1.62v1.76c0,.43-.03.8-.08,1.11-.05.32-.16.59-.31.84-.15.24-.37.46-.64.66-.27.2-.62.39-1.06.58l-2.09.93,3.26,2.36,3.5-3.32c.09-.07.19-.13.28-.18.1-.04.26-.07.48-.07h2.66c.25,0,.42.07.49.21.07.14.03.28-.14.43l-4.83,4.69,5.65,4.07c.13.1.16.23.09.37-.06.15-.19.22-.39.22h-3.42c-.2,0-.35-.02-.46-.07-.11-.04-.22-.11-.33-.2l-3.23-2.38-.98.95c-.36.35-.69.64-.99.86s-.62.39-.96.52-.73.21-1.17.25c-.44.04-.96.07-1.58.07h-5.11c-1.1,0-1.97-.25-2.61-.75-.63-.5-.95-1.3-.95-2.4v-1.3c0-.81.19-1.48.56-2,.37-.53,1.02-1,1.94-1.41l3.04-1.34-1.49-1.1c-.29-.22-.53-.42-.71-.6-.18-.18-.33-.37-.43-.57-.11-.2-.19-.41-.23-.64-.05-.23-.07-.49-.07-.78v-1.34c0-.82.21-1.48.62-1.96.42-.48,1.11-.73,2.09-.73h6.71ZM344.58,117.85c.29,0,.54-.01.76-.03.22-.02.41-.06.57-.12s.32-.14.46-.24c.14-.1.3-.24.46-.4l1.11-1.06-4.1-3.04-2.66,1.17c-.83.32-1.25.92-1.25,1.78v.62c0,.48.13.83.38,1.02.25.2.61.3,1.06.3h3.2ZM342.44,107.81c0,.29.04.51.12.66s.26.32.53.53l1.38,1.01,2.06-.93c.4-.16.65-.33.76-.51.11-.17.16-.43.16-.77v-.84c0-.26-.09-.47-.26-.63-.17-.15-.43-.23-.77-.23h-3.07c-.62,0-.92.33-.92.99v.71Z"/>
    <path class="cls-1" d="M407.75,105.06c1.86,0,3.19.3,3.98.9.79.6,1.18,1.51,1.18,2.73v1.06c0,1.23-.58,2.17-1.74,2.8,1.25.59,1.87,1.53,1.87,2.84v1.28c0,.59-.08,1.12-.25,1.59-.16.47-.43.87-.8,1.2-.37.33-.86.58-1.48.76-.62.18-1.38.26-2.28.26h-16.13c-.54,0-.81-.22-.81-.66v-14.09c0-.44.27-.66.81-.66h15.64ZM395.45,111.46h11.13c.9,0,1.52-.11,1.85-.33.33-.22.49-.54.49-.97v-.75c0-.45-.16-.79-.48-1-.32-.21-.83-.32-1.53-.32h-11.11c-.24,0-.35.1-.35.29v3.08ZM395.45,113.86v3.28c0,.19.12.29.35.29h11.13c.72,0,1.24-.11,1.55-.32.31-.21.46-.55.46-1.02v-.84c0-.46-.17-.8-.5-1.04-.33-.23-.96-.35-1.86-.35h-11.13Z"/>
    <path class="cls-1" d="M430.62,105.06c.4,0,.6.16.6.48v8.78c0,.59.06,1.08.18,1.47.12.39.31.7.58.92s.64.39,1.1.48,1.04.14,1.75.14h7.52c.71,0,1.29-.05,1.75-.14s.83-.26,1.1-.48.46-.54.57-.92c.11-.39.16-.88.16-1.47v-8.78c0-.32.2-.48.6-.48h2.96c.4,0,.6.16.6.48v9.12c0,1.06-.14,1.96-.41,2.7s-.71,1.34-1.32,1.8c-.61.46-1.39.8-2.36,1-.97.21-2.14.31-3.52.31h-7.82c-1.38,0-2.54-.1-3.5-.31-.96-.21-1.74-.54-2.35-1-.61-.46-1.05-1.06-1.33-1.8s-.42-1.64-.42-2.7v-9.12c0-.32.21-.48.62-.48h2.93Z"/>
    <path class="cls-1" d="M468.07,105.06c.4,0,.6.16.6.48v14.44c0,.32-.2.48-.6.48h-2.93c-.42,0-.62-.16-.62-.48v-14.44c0-.32.21-.48.62-.48h2.93Z"/>
    <path class="cls-1" d="M486.64,105.06c.4,0,.6.16.6.48v8.78c0,.59.06,1.08.18,1.47.12.39.31.7.58.92s.64.39,1.1.48,1.04.14,1.75.14h11c.4,0,.6.16.6.48v2.16c0,.32-.2.48-.6.48h-11.16c-1.38,0-2.54-.1-3.5-.31-.96-.21-1.74-.54-2.35-1-.61-.46-1.05-1.06-1.33-1.8s-.42-1.64-.42-2.7v-9.12c0-.32.21-.48.62-.48h2.93Z"/>
    <path class="cls-1" d="M141.89,108.48c-.32-.79-.81-1.43-1.48-1.94-.67-.5-1.53-.88-2.58-1.12s-2.31-.36-3.77-.36h-14.13c-.24,0-.36.16-.36.48v2.09c0,.32.12.48.36.48h.61v11.69c0,.44.27.66.81.66h12.71c1.47,0,2.72-.12,3.77-.36,1.05-.24,1.91-.61,2.58-1.12.67-.51,1.16-1.15,1.48-1.94.32-.79.48-1.72.48-2.79v-3c0-1.07-.16-2-.48-2.78ZM138.21,113.97c0,.65-.07,1.19-.22,1.63-.14.44-.38.79-.72,1.06-.34.26-.77.46-1.32.57-.54.12-1.21.18-2.01.18h-8.91c-.24,0-.35-.1-.35-.29v-8.69c0-.21.12-.31.35-.31h8.91c.8,0,1.47.06,2.01.18.54.12.98.31,1.32.57.33.26.57.62.72,1.06.14.44.22.98.22,1.63v2.42Z"/>
    <path class="cls-1" d="M537.16,108.48c-.32-.79-.81-1.43-1.48-1.94-.67-.5-1.53-.88-2.58-1.12-1.05-.24-2.31-.36-3.77-.36h-14.13c-.24,0-.36.16-.36.48v2.09c0,.32.12.48.36.48h.61v11.69c0,.44.27.66.81.66h12.71c1.47,0,2.72-.12,3.77-.36,1.05-.24,1.91-.61,2.58-1.12.67-.51,1.16-1.15,1.48-1.94.32-.79.48-1.72.48-2.79v-3c0-1.07-.16-2-.48-2.78ZM533.48,113.97c0,.65-.07,1.19-.22,1.63-.14.44-.38.79-.72,1.06-.34.26-.77.46-1.32.57-.54.12-1.21.18-2.01.18h-8.91c-.24,0-.35-.1-.35-.29v-8.69c0-.21.12-.31.35-.31h8.91c.8,0,1.47.06,2.01.18.54.12.98.31,1.32.57.33.26.57.62.72,1.06.14.44.22.98.22,1.63v2.42Z"/>
  </g>
  <g>
    <path class="cls-1" d="M474.79,71.64h-95.53v-11.56h95.53c13.31,0,24.14-10.83,24.14-24.14s-10.83-24.14-24.14-24.14h-84.72l-.02,29.67h-11.56s.03-41.24.03-41.24h96.27c19.69,0,35.7,16.01,35.7,35.7s-16.01,35.7-35.7,35.7Z"/>
    <path class="cls-1" d="M635.78,71.64h-88.79c-11.81,0-21.42-9.61-21.42-21.42v-28.56c0-11.81,9.61-21.42,21.42-21.42h88.79c11.81,0,21.42,9.61,21.42,21.42v28.56c0,11.81-9.61,21.42-21.42,21.42ZM547,11.81c-5.44,0-9.86,4.42-9.86,9.86v28.56c0,5.44,4.42,9.86,9.86,9.86h88.79c5.44,0,9.86-4.42,9.86-9.86v-28.56c0-5.44-4.42-9.86-9.86-9.86h-88.79Z"/>
    <g>
      <rect class="cls-1" x="187.09" y="59.84" width="131.62" height="11.56"/>
      <polygon class="cls-1" points="187.32 0 187.32 41.49 301.13 41.49 301.13 29.92 198.88 29.92 198.88 11.57 318.71 11.57 318.71 0 187.32 0"/>
    </g>
    <g>
      <polygon class="cls-1" points="67.76 53.86 67.47 54.17 67.18 53.86 26.81 11.41 15.96 0 0 0 10.85 11.41 59.47 62.55 67.47 70.96 67.47 70.96 67.47 70.96 75.47 62.55 80.62 57.14 72.63 48.74 67.76 53.86"/>
      <polygon class="cls-2" points="156.62 0 156.61 .01 67.34 .01 77.74 11.75 145.45 11.75 105.4 53.86 105.11 54.17 104.82 53.86 64.44 11.41 53.6 0 37.64 0 48.49 11.41 97.11 62.55 105.11 70.96 105.11 70.96 105.11 70.96 113.11 62.55 161.73 11.41 172.58 0 156.62 0"/>
    </g>
  </g>
</svg>